<mxfile host="app.diagrams.net" agent="Mozilla/5.0 (X11; Linux x86_64) AppleWebKit/537.36 (KHTML, like Gecko) Chrome/138.0.0.0 Safari/537.36" version="28.0.9">
  <diagram name="Luồng Xác thực" id="authentication_flow">
    <mxGraphModel dx="476" dy="215" grid="1" gridSize="10" guides="1" tooltips="1" connect="1" arrows="1" fold="1" page="1" pageScale="1" pageWidth="1400" pageHeight="900" math="0" shadow="0">
      <root>
        <mxCell id="0" />
        <mxCell id="1" parent="0" />
        <mxCell id="alt_frame2" value="alt" style="shape=umlFrame;whiteSpace=wrap;html=1;width=40;height=20;" parent="1" vertex="1">
          <mxGeometry x="70" y="390" width="860" height="410" as="geometry" />
        </mxCell>
        <mxCell id="title" value="Sơ đồ Sequence - Luồng Xác thực và Kiểm tra quyền" style="text;html=1;strokeColor=none;fillColor=none;align=center;verticalAlign=middle;whiteSpace=wrap;rounded=0;fontSize=18;fontStyle=1;" parent="1" vertex="1">
          <mxGeometry x="300" y="20" width="480" height="20" as="geometry" />
        </mxCell>
        <mxCell id="client_box" value="Client/Frontend" style="rounded=0;whiteSpace=wrap;html=1;fontStyle=1;" parent="1" vertex="1">
          <mxGeometry x="80" y="80" width="120" height="40" as="geometry" />
        </mxCell>
        <mxCell id="guard_box" value="Guard" style="rounded=0;whiteSpace=wrap;html=1;fontStyle=1;" parent="1" vertex="1">
          <mxGeometry x="280" y="80" width="150" height="40" as="geometry" />
        </mxCell>
        <mxCell id="jwt_box" value="JwtService" style="rounded=0;whiteSpace=wrap;html=1;fontStyle=1;" parent="1" vertex="1">
          <mxGeometry x="520" y="80" width="120" height="40" as="geometry" />
        </mxCell>
        <mxCell id="controller_box" value="Controller" style="rounded=0;whiteSpace=wrap;html=1;fontStyle=1;" parent="1" vertex="1">
          <mxGeometry x="720" y="80" width="150" height="40" as="geometry" />
        </mxCell>
        <mxCell id="client_lifeline" value="" style="endArrow=none;dashed=1;html=1;strokeWidth=1;" parent="1" edge="1">
          <mxGeometry width="50" height="50" relative="1" as="geometry">
            <mxPoint x="140" y="140" as="sourcePoint" />
            <mxPoint x="140" y="800" as="targetPoint" />
          </mxGeometry>
        </mxCell>
        <mxCell id="guard_lifeline" value="" style="endArrow=none;dashed=1;html=1;strokeWidth=1;" parent="1" edge="1">
          <mxGeometry width="50" height="50" relative="1" as="geometry">
            <mxPoint x="360" y="140" as="sourcePoint" />
            <mxPoint x="360" y="800" as="targetPoint" />
          </mxGeometry>
        </mxCell>
        <mxCell id="jwt_lifeline" value="" style="endArrow=none;dashed=1;html=1;strokeWidth=1;" parent="1" edge="1">
          <mxGeometry width="50" height="50" relative="1" as="geometry">
            <mxPoint x="580" y="140" as="sourcePoint" />
            <mxPoint x="580" y="800" as="targetPoint" />
          </mxGeometry>
        </mxCell>
        <mxCell id="controller_lifeline" value="" style="endArrow=none;dashed=1;html=1;strokeWidth=1;" parent="1" edge="1">
          <mxGeometry width="50" height="50" relative="1" as="geometry">
            <mxPoint x="795" y="140" as="sourcePoint" />
            <mxPoint x="795" y="800" as="targetPoint" />
          </mxGeometry>
        </mxCell>
        <mxCell id="msg1" value="" style="endArrow=classic;html=1;strokeWidth=1;" parent="1" edge="1">
          <mxGeometry width="50" height="50" relative="1" as="geometry">
            <mxPoint x="140" y="180" as="sourcePoint" />
            <mxPoint x="360" y="180" as="targetPoint" />
          </mxGeometry>
        </mxCell>
        <mxCell id="msg1_label" value="&lt;span style=&quot;font-weight: normal;&quot;&gt;Request đến endpoint cần xác thực&lt;/span&gt;" style="text;html=1;align=center;verticalAlign=bottom;resizable=0;points=[];autosize=1;fontStyle=1;fontSize=11;" parent="1" vertex="1">
          <mxGeometry x="145" y="150" width="200" height="30" as="geometry" />
        </mxCell>
        <mxCell id="note1" value="Headers: Authorization: &quot;Bearer eyJhbGciOiJIUzI1NiIs...&quot;" style="rounded=1;whiteSpace=wrap;html=1;fontSize=10;" parent="1" vertex="1">
          <mxGeometry x="145" y="195" width="200" height="30" as="geometry" />
        </mxCell>
        <mxCell id="alt_frame1" value="alt" style="shape=umlFrame;whiteSpace=wrap;html=1;width=40;height=20;shadow=0;" parent="1" vertex="1">
          <mxGeometry x="70" y="240" width="800" height="135" as="geometry" />
        </mxCell>
        <mxCell id="alt_condition1" value="&lt;span style=&quot;font-style: normal;&quot;&gt;&lt;b&gt;[Không có token]&lt;/b&gt;&lt;/span&gt;" style="text;html=1;align=left;verticalAlign=top;resizable=0;points=[];autosize=1;fontStyle=2;fontSize=11;color=#c62828;" parent="1" vertex="1">
          <mxGeometry x="420" y="240" width="110" height="30" as="geometry" />
        </mxCell>
        <mxCell id="msg3" value="" style="endArrow=classic;html=1;strokeWidth=1;dashed=1;" parent="1" edge="1">
          <mxGeometry width="50" height="50" relative="1" as="geometry">
            <mxPoint x="360" y="275" as="sourcePoint" />
            <mxPoint x="140" y="275" as="targetPoint" />
          </mxGeometry>
        </mxCell>
        <mxCell id="msg3_label" value="401 - Không tìm thấy token" style="text;html=1;align=center;verticalAlign=bottom;resizable=0;points=[];autosize=1;fontSize=11;color=#c62828;" parent="1" vertex="1">
          <mxGeometry x="180" y="250" width="140" height="25" as="geometry" />
        </mxCell>
        <mxCell id="else_frame" value="&lt;b style=&quot;font-style: normal;&quot;&gt;[else] Có token&lt;/b&gt;" style="text;html=1;align=left;verticalAlign=top;resizable=0;points=[];autosize=1;fontStyle=2;fontSize=11;color=#2e7d32;" parent="1" vertex="1">
          <mxGeometry x="425" y="305" width="100" height="30" as="geometry" />
        </mxCell>
        <mxCell id="msg4" value="" style="endArrow=classic;html=1;strokeWidth=1;" parent="1" edge="1">
          <mxGeometry width="50" height="50" relative="1" as="geometry">
            <mxPoint x="360" y="355" as="sourcePoint" />
            <mxPoint x="575" y="355" as="targetPoint" />
          </mxGeometry>
        </mxCell>
        <mxCell id="msg4_label" value="verifyAsync(token, secret)" style="text;html=1;align=center;verticalAlign=bottom;resizable=0;points=[];autosize=1;fontSize=11;" parent="1" vertex="1">
          <mxGeometry x="390" y="330" width="130" height="25" as="geometry" />
        </mxCell>
        <mxCell id="alt_condition2" value="&lt;b style=&quot;font-style: normal;&quot;&gt;[Token không hợp lệ/hết hạn]&lt;/b&gt;" style="text;html=1;align=left;verticalAlign=top;resizable=0;points=[];autosize=1;fontStyle=2;fontSize=11;color=#c62828;" parent="1" vertex="1">
          <mxGeometry x="390.89" y="390" width="180" height="30" as="geometry" />
        </mxCell>
        <mxCell id="msg5" value="" style="endArrow=classic;html=1;strokeWidth=1;dashed=1;entryX=0.526;entryY=1.135;entryDx=0;entryDy=0;entryPerimeter=0;" parent="1" edge="1">
          <mxGeometry width="50" height="50" relative="1" as="geometry">
            <mxPoint x="580.89" y="430" as="sourcePoint" />
            <mxPoint x="359.26999999999987" y="430.005" as="targetPoint" />
          </mxGeometry>
        </mxCell>
        <mxCell id="fdzB_pWs_cNC_eh8pnbF-12" value="Throw UnauthorizedException" style="edgeLabel;html=1;align=center;verticalAlign=middle;resizable=0;points=[];" parent="msg5" vertex="1" connectable="0">
          <mxGeometry x="-0.1478" y="-1" relative="1" as="geometry">
            <mxPoint x="-16" y="-9" as="offset" />
          </mxGeometry>
        </mxCell>
        <mxCell id="msg5_label" value="401 - Token không hợp lệ" style="text;html=1;align=center;verticalAlign=bottom;resizable=0;points=[];autosize=1;fontSize=11;color=#c62828;" parent="1" vertex="1">
          <mxGeometry x="190.89" y="420" width="130" height="25" as="geometry" />
        </mxCell>
        <mxCell id="else_frame2" value="&lt;span style=&quot;font-style: normal;&quot;&gt;&lt;b&gt;[else] Token hợp lệ&lt;/b&gt;&lt;/span&gt;" style="text;html=1;align=left;verticalAlign=top;resizable=0;points=[];autosize=1;fontStyle=2;fontSize=11;color=#2e7d32;" parent="1" vertex="1">
          <mxGeometry x="415" y="470" width="120" height="30" as="geometry" />
        </mxCell>
        <mxCell id="msg6" value="" style="endArrow=classic;html=1;strokeWidth=1;dashed=1;" parent="1" edge="1">
          <mxGeometry width="50" height="50" relative="1" as="geometry">
            <mxPoint x="575.89" y="510" as="sourcePoint" />
            <mxPoint x="360.89" y="510" as="targetPoint" />
          </mxGeometry>
        </mxCell>
        <mxCell id="msg6_label" value="payload (nội dung đã decode)" style="text;html=1;align=center;verticalAlign=bottom;resizable=0;points=[];autosize=1;fontSize=11;" parent="1" vertex="1">
          <mxGeometry x="385.89" y="480" width="170" height="30" as="geometry" />
        </mxCell>
        <mxCell id="payload_note" value="payload = {&lt;br&gt;&amp;nbsp;&amp;nbsp;sub: &quot;user-id&quot;,&lt;br&gt;&amp;nbsp;&amp;nbsp;email: &quot;user@example.com&quot;,&lt;br&gt;&amp;nbsp;&amp;nbsp;role: &quot;USER hoặc ADMIN&quot;,&lt;br&gt;&amp;nbsp;&amp;nbsp;exp: &quot;hạn sử dụng&quot;&lt;br&gt;}" style="rounded=1;whiteSpace=wrap;html=1;fontSize=10;" parent="1" vertex="1">
          <mxGeometry x="390.89" y="520" width="160" height="80" as="geometry" />
        </mxCell>
        <mxCell id="msg8" value="" style="endArrow=classic;html=1;strokeWidth=2;" parent="1" edge="1">
          <mxGeometry width="50" height="50" relative="1" as="geometry">
            <mxPoint x="360.89" y="680" as="sourcePoint" />
            <mxPoint x="790.89" y="680" as="targetPoint" />
          </mxGeometry>
        </mxCell>
        <mxCell id="note4" value="Controller có thể sử dụng:&lt;br&gt;@CurrentUser() user: JwtPayload&lt;br&gt;@CurrentUser(&#39;sub&#39;) userId: string" style="rounded=1;whiteSpace=wrap;html=1;fontSize=10;" parent="1" vertex="1">
          <mxGeometry x="705" y="710" width="180" height="60" as="geometry" />
        </mxCell>
        <mxCell id="msg10" value="" style="endArrow=classic;html=1;strokeWidth=1;dashed=1;" parent="1" edge="1">
          <mxGeometry width="50" height="50" relative="1" as="geometry">
            <mxPoint x="790.89" y="780" as="sourcePoint" />
            <mxPoint x="140" y="780" as="targetPoint" />
          </mxGeometry>
        </mxCell>
        <mxCell id="msg10_label" value="&lt;span style=&quot;font-weight: normal;&quot;&gt;200 - Trả về kết quả đã tính toán&lt;/span&gt;" style="text;html=1;align=center;verticalAlign=bottom;resizable=0;points=[];autosize=1;fontSize=11;color=#2e7d32;fontStyle=1;" parent="1" vertex="1">
          <mxGeometry x="380.89" y="750" width="180" height="30" as="geometry" />
        </mxCell>
        <mxCell id="fdzB_pWs_cNC_eh8pnbF-1" value="" style="curved=1;endArrow=classic;html=1;rounded=0;" parent="1" edge="1">
          <mxGeometry width="50" height="50" relative="1" as="geometry">
            <mxPoint x="360" y="215" as="sourcePoint" />
            <mxPoint x="360" y="225" as="targetPoint" />
            <Array as="points">
              <mxPoint x="380" y="215" />
              <mxPoint x="370" y="225" />
            </Array>
          </mxGeometry>
        </mxCell>
        <mxCell id="fdzB_pWs_cNC_eh8pnbF-2" value="&lt;span style=&quot;background-color: rgb(236, 236, 236);&quot;&gt;Extract token từ headers&lt;/span&gt;" style="edgeLabel;html=1;align=center;verticalAlign=middle;resizable=0;points=[];" parent="fdzB_pWs_cNC_eh8pnbF-1" connectable="0" vertex="1">
          <mxGeometry x="0.1753" y="-1" relative="1" as="geometry">
            <mxPoint x="75" y="2" as="offset" />
          </mxGeometry>
        </mxCell>
        <mxCell id="fdzB_pWs_cNC_eh8pnbF-6" value="" style="curved=1;endArrow=classic;html=1;rounded=0;" parent="1" edge="1">
          <mxGeometry width="50" height="50" relative="1" as="geometry">
            <mxPoint x="360.89" y="610" as="sourcePoint" />
            <mxPoint x="360.89" y="620" as="targetPoint" />
            <Array as="points">
              <mxPoint x="380.89" y="610" />
              <mxPoint x="370.89" y="620" />
            </Array>
          </mxGeometry>
        </mxCell>
        <mxCell id="fdzB_pWs_cNC_eh8pnbF-7" value="&lt;span style=&quot;background-color: rgb(236, 236, 236);&quot;&gt;Gán vào trường user:&lt;/span&gt;&lt;br&gt;&lt;div&gt;&lt;span style=&quot;background-color: rgb(236, 236, 236);&quot;&gt;request.user = payload&lt;/span&gt;&lt;/div&gt;" style="edgeLabel;html=1;align=center;verticalAlign=middle;resizable=0;points=[];" parent="fdzB_pWs_cNC_eh8pnbF-6" connectable="0" vertex="1">
          <mxGeometry x="0.1753" y="-1" relative="1" as="geometry">
            <mxPoint x="75" y="16" as="offset" />
          </mxGeometry>
        </mxCell>
        <mxCell id="fdzB_pWs_cNC_eh8pnbF-10" value="" style="endArrow=classic;html=1;strokeWidth=1;dashed=1;entryX=0.526;entryY=1.135;entryDx=0;entryDy=0;entryPerimeter=0;" parent="1" edge="1">
          <mxGeometry width="50" height="50" relative="1" as="geometry">
            <mxPoint x="358.89" y="450" as="sourcePoint" />
            <mxPoint x="142.57999999999998" y="448.375" as="targetPoint" />
          </mxGeometry>
        </mxCell>
        <mxCell id="fdzB_pWs_cNC_eh8pnbF-13" value="" style="curved=1;endArrow=classic;html=1;rounded=0;" parent="1" edge="1">
          <mxGeometry width="50" height="50" relative="1" as="geometry">
            <mxPoint x="800.89" y="690" as="sourcePoint" />
            <mxPoint x="800.89" y="700" as="targetPoint" />
            <Array as="points">
              <mxPoint x="820.89" y="690" />
              <mxPoint x="810.89" y="700" />
            </Array>
          </mxGeometry>
        </mxCell>
        <mxCell id="fdzB_pWs_cNC_eh8pnbF-14" value="&lt;span style=&quot;background-color: rgb(236, 236, 236);&quot;&gt;Thực thi business logic&lt;/span&gt;" style="edgeLabel;html=1;align=center;verticalAlign=middle;resizable=0;points=[];" parent="fdzB_pWs_cNC_eh8pnbF-13" connectable="0" vertex="1">
          <mxGeometry x="0.1753" y="-1" relative="1" as="geometry">
            <mxPoint x="44" y="-13" as="offset" />
          </mxGeometry>
        </mxCell>
        <mxCell id="fdzB_pWs_cNC_eh8pnbF-15" value="" style="endArrow=none;dashed=1;html=1;rounded=0;exitX=0;exitY=0.466;exitDx=0;exitDy=0;exitPerimeter=0;entryX=1;entryY=0.466;entryDx=0;entryDy=0;entryPerimeter=0;" parent="1" source="alt_frame1" target="alt_frame1" edge="1">
          <mxGeometry width="50" height="50" relative="1" as="geometry">
            <mxPoint x="370" y="455" as="sourcePoint" />
            <mxPoint x="420" y="405" as="targetPoint" />
          </mxGeometry>
        </mxCell>
        <mxCell id="fdzB_pWs_cNC_eh8pnbF-18" value="" style="endArrow=none;dashed=1;html=1;rounded=0;exitX=-0.001;exitY=0.199;exitDx=0;exitDy=0;exitPerimeter=0;entryX=1;entryY=0.193;entryDx=0;entryDy=0;entryPerimeter=0;strokeWidth=1;" parent="1" source="alt_frame2" target="alt_frame2" edge="1">
          <mxGeometry width="50" height="50" relative="1" as="geometry">
            <mxPoint x="80.89" y="472" as="sourcePoint" />
            <mxPoint x="882.89" y="470" as="targetPoint" />
          </mxGeometry>
        </mxCell>
        <mxCell id="msg8_label" value="canActivate() = true (cho phép truy cập)" style="text;html=1;align=center;verticalAlign=bottom;resizable=0;points=[];autosize=1;fontSize=11;" parent="1" vertex="1">
          <mxGeometry x="470.89" y="650" width="220" height="30" as="geometry" />
        </mxCell>
        <mxCell id="x9Un6-TGZ3_LbPjQqrKe-1" value="" style="curved=1;endArrow=classic;html=1;rounded=0;" edge="1" parent="1">
          <mxGeometry width="50" height="50" relative="1" as="geometry">
            <mxPoint x="360.89" y="650" as="sourcePoint" />
            <mxPoint x="360.89" y="660" as="targetPoint" />
            <Array as="points">
              <mxPoint x="380.89" y="650" />
              <mxPoint x="370.89" y="660" />
            </Array>
          </mxGeometry>
        </mxCell>
        <mxCell id="x9Un6-TGZ3_LbPjQqrKe-2" value="&lt;span style=&quot;background-color: rgb(236, 236, 236);&quot;&gt;kiểm tra role từ payload&lt;/span&gt;" style="edgeLabel;html=1;align=center;verticalAlign=middle;resizable=0;points=[];" connectable="0" vertex="1" parent="x9Un6-TGZ3_LbPjQqrKe-1">
          <mxGeometry x="0.1753" y="-1" relative="1" as="geometry">
            <mxPoint x="64" y="6" as="offset" />
          </mxGeometry>
        </mxCell>
      </root>
    </mxGraphModel>
  </diagram>
</mxfile>
